<?xml version="1.0" standalone="no"?><!DOCTYPE svg PUBLIC "-//W3C//DTD SVG 1.1//EN" "http://www.w3.org/Graphics/SVG/1.1/DTD/svg11.dtd"><svg t="1571384078591" class="icon" viewBox="0 0 1024 1024" version="1.1" xmlns="http://www.w3.org/2000/svg" p-id="1239" width="128" height="128" xmlns:xlink="http://www.w3.org/1999/xlink"><defs><style type="text/css"></style></defs><path d="M994.5088 58.7776a61.184 61.184 0 0 0-44.7488-5.632 58.7264 58.7264 0 0 0-35.84 26.368L405.76 838.9632 88.4736 583.68c-28.2112-15.616-64.3072-6.3488-80.5888 20.736a55.296 55.296 0 0 0 21.6064 77.312l368.384 283.4944c13.568 7.4752 29.6448 9.5232 44.7488 5.632 15.104-3.8912 28.0064-13.312 35.84-26.368l537.6-808.448c7.8336-12.9536 9.984-28.416 5.9392-42.9056a56.9344 56.9344 0 0 0-27.4944-34.3552z" fill="#d81e06" p-id="1240"></path></svg>